<?xml version="1.0" ?><!DOCTYPE svg  PUBLIC '-//W3C//DTD SVG 1.1//EN'  'http://www.w3.org/Graphics/SVG/1.1/DTD/svg11.dtd'><svg enable-background="new -208.5 20.5 100 100" id="Layer_1" version="1.1" viewBox="-208.5 20.5 100 100" xml:space="preserve" xmlns="http://www.w3.org/2000/svg" xmlns:sketch="http://www.bohemiancoding.com/sketch/ns" xmlns:xlink="http://www.w3.org/1999/xlink"><g><g><circle cx="-158.5" cy="70.5" fill="#1E1F24" r="50"/><circle cx="-158.5" cy="70.5" fill="none" r="50"/><g><defs><circle cx="-158.5" cy="70.5" id="SVGID_1_" r="50"/></defs><defs><circle cx="-158.5" cy="70.5" id="SVGID_2_" r="50"/></defs><clipPath id="SVGID_3_"><use overflow="visible" xlink:href="#SVGID_1_"/></clipPath><clipPath clip-path="url(#SVGID_3_)" id="SVGID_4_"><use overflow="visible" xlink:href="#SVGID_2_"/></clipPath><path clip-path="url(#SVGID_4_)" d="M-143.5,96.4l27.9,7.7c3.2,1.1,5.7,3.5,7.1,6.6v9.8h-100v-9.8      c1.3-3.1,3.9-5.5,7.1-6.6l27.9-7.7V81.5h30V96.4z" fill="#D4B08C"/><g clip-path="url(#SVGID_4_)"><defs><path d="M-143.5,96.4l27.9,7.7c3.2,1.1,5.7,3.5,7.1,6.6v9.8h-100v-9.8c1.3-3.1,3.9-5.5,7.1-6.6l27.9-7.7V81.5        h30V96.4z" id="SVGID_5_"/></defs><clipPath id="SVGID_6_"><use overflow="visible" xlink:href="#SVGID_5_"/></clipPath><path clip-path="url(#SVGID_6_)" d="M-158.3,100.5h-7.2l-4.8-5h-38.2v25h50.2h50.2v-25h-38.2l-4.8,5H-158.3z" fill="#70A619"/></g></g><path d="M-158.5,94.5c-1.5,0-3.5-0.3-4.8-0.9c-1.6-0.7-7.2-4.6-9.1-6.3     c-2.5-2.3-3.8-5.1-4.2-10s-1.9-22.4-1.9-26.4c0-5.7,5.1-14.5,19.9-14.5c0,0,0,0,0,0c0,0,0,0,0,0c0,0,0,0,0,0c0,0,0,0,0,0     c14.8,0,19.9,8.8,19.9,14.5c0,4-1.5,21.5-1.9,26.4s-1.6,7.7-4.2,10c-1.9,1.7-7.6,5.6-9.1,6.3C-155,94.2-157,94.5-158.5,94.5     L-158.5,94.5z" fill="#F2CEA5"/><g><defs><path d="M-158.5,94.5c-1.5,0-3.5-0.3-4.8-0.9c-1.6-0.7-7.2-4.6-9.1-6.3       c-2.5-2.3-3.8-5.1-4.2-10s-1.9-22.4-1.9-26.4c0-5.7,5.1-14.5,19.9-14.5c0,0,0,0,0,0c0,0,0,0,0,0c0,0,0,0,0,0c0,0,0,0,0,0       c14.8,0,19.9,8.8,19.9,14.5c0,4-1.5,21.5-1.9,26.4s-1.6,7.7-4.2,10c-1.9,1.7-7.6,5.6-9.1,6.3C-155,94.2-157,94.5-158.5,94.5       L-158.5,94.5z" id="SVGID_7_"/></defs><clipPath id="SVGID_8_"><use overflow="visible" xlink:href="#SVGID_7_"/></clipPath><path clip-path="url(#SVGID_8_)" d="M-158.5,94.5c-1.5,0-3.5-0.3-4.8-0.9c-1.6-0.7-7.2-4.6-9.1-6.3      c-2.5-2.3-3.8-5.1-4.2-10s-1.9-22.4-1.9-26.4c0-5.7,5.1-14.5,19.9-14.5c0,0,0,0,0,0c0,0,0,0,0,0c0,0,0,0,0,0c0,0,0,0,0,0      c14.8,0,19.9,8.8,19.9,14.5c0,4-1.5,21.5-1.9,26.4s-1.6,7.7-4.2,10c-1.9,1.7-7.6,5.6-9.1,6.3C-155,94.2-157,94.5-158.5,94.5      L-158.5,94.5z" fill="#F2CEA5"/><path clip-path="url(#SVGID_8_)" d="M-158.6,80.5C-158.6,80.5-158.6,80.5-158.6,80.5c-2.2-0.1-1.4-2-4.7-2      s-5.4,1.7-6.3,3l-8-11v27h19.1h19.1v-27l-8,11c-1-1.2-3-2.9-6.3-3S-156.4,80.4-158.6,80.5C-158.5,80.5-158.6,80.5-158.6,80.5      L-158.6,80.5z M-158.6,82.5C-158.6,82.5-158.6,82.5-158.6,82.5c-2.4,0-1.5-1-4.1-1c-3.5,0-5,0.7-5,2.5s1.2,4.3,5,4.5      c1.1-0.1,1.7-0.4,2-0.8c0-0.6,0.4-1.3,2.1-1.2c1.7-0.1,2,0.6,2.1,1.2c0.3,0.4,0.9,0.8,2,0.8c3.8-0.2,5-2.7,5-4.5s-1.5-2.5-5-2.5      C-157,81.5-156.2,82.5-158.6,82.5C-158.5,82.5-158.6,82.5-158.6,82.5L-158.6,82.5z" fill="#FFFFFF"/><path clip-path="url(#SVGID_8_)" d="M-155.5,85.5h-6c-0.6,0-1-0.4-1-1s0.4-1,1-1h6c0.6,0,1,0.4,1,1      S-154.9,85.5-155.5,85.5z" fill="#A3705F"/><path clip-path="url(#SVGID_8_)" d="M-149.5,67.5c1.1,0,2-0.9,2-2s-0.9-2-2-2s-2,0.9-2,2S-150.6,67.5-149.5,67.5      z M-167.5,67.5c1.1,0,2-0.9,2-2s-0.9-2-2-2s-2,0.9-2,2S-168.6,67.5-167.5,67.5z" fill="#262626"/><path clip-path="url(#SVGID_8_)" d="M-161.9,64c-0.5-0.8-1.9-2.5-5.5-2.5c-4.1,0-5.1,2.3-5.1,2.4l-1.9-0.7      c0.1-0.1,1.4-3.6,7-3.6c4.6,0,6.6,2.4,7.2,3.5L-161.9,64z" fill="#CC9872"/><path clip-path="url(#SVGID_8_)" d="M-157.5,74.5c0-0.3,0-7.1,0-9c0-2.5,2.5-5.9,8-6c5.5,0,6.9,3.5,7,3.6      l-1.9,0.7c0-0.1-1-2.3-5.1-2.4c-4.1,0-6,2.4-6,4c0,1.9,0,8.9,0,9L-157.5,74.5z" fill="#BB8660"/></g><path d="M-173.4,94.9l1.7-2.8l12.9,5.9l13.1-4.9l2.2,2.2v6.5c0,0-10.8,10.6-15,10.7     c-4.2,0-14.9-11.5-14.9-11.5V94.9z" fill="#D4B08C"/><path d="M-143.5,96.4c-0.1,2.4,0,2.4,0,4.3c0,14.1-8.5,19.7-8.5,19.7l-1.8,0     c0,0-4.4,0-4.4,0l-4.3,0l-1.8,0c0,0-9.2-6.7-9.2-18.7c0-2,0-4.4,0-5.3c1,1,2.7,8.3,15.4,8.3S-144.5,97.4-143.5,96.4z" fill="#FFFFFF"/><rect fill="#E1BC90" height="2" width="17.9" x="-167.4" y="50.5"/><rect fill="#E1BC90" height="2" width="9.9" x="-163.4" y="54.5"/><path d="M-145.9,39.7c0,0,3.5,4.4,4,10.9c0.2,2.9-1,5,1.4,10.6c1.1,2.5,1.1,3,1.1,4     C-136.7,56.7-135,44.7-145.9,39.7L-145.9,39.7z M-171.1,39.7c0,0-3.5,4.4-4,10.9c-0.2,2.9,1,5-1.4,10.6c-1.1,2.5-1.1,3-1.1,4     C-180.3,56.7-182,44.7-171.1,39.7L-171.1,39.7z" fill="#FFFFFF"/></g></g></svg>